<?xml version="1.0" ?>
<svg xmlns="http://www.w3.org/2000/svg" version="1.1" viewBox="0 0 64 64">
    <path fill="#fff" d="M60.4,22.4c-4.8-4.8-12.6-4.8-17.5,0L23.3,42c-1.2,1.2-1.2,3.2,0,4.4 c1.2,1.2,3.2,1.2,4.4,0l19.6-19.6c2.4-2.4,6.3-2.4,8.7,0c2.4,2.4,2.4,6.3,0,8.7L36.7,54.8c2.4,2.4,6.3,2.4,8.7,0l14.9-14.9 C65.2,35,65.2,27.2,60.4,22.4z M53.8,28.9c-1.2-1.2-3.2-1.2-4.4,0L29.8,48.6c-2.4,2.4-6.3,2.4-8.7,0c-1.2-1.2-3.2-1.2-4.4,0 c-1.2,1.2-1.2,3.2,0,4.4c4.8,4.8,12.6,4.8,17.5,0l19.6-19.6C55,32.1,55,30.1,53.8,28.9z M47.3,9.3c-4.8-4.8-12.6-4.8-17.5,0 L10.2,28.9c-1.2,1.2-1.2,3.2,0,4.4c1.2,1.2,3.2,1.2,4.4,0l19.7-19.6c2.4-2.4,6.3-2.4,8.7,0c1.2,1.2,3.2,1.2,4.4,0 C48.5,12.4,48.5,10.5,47.3,9.3z M40.7,15.8c-1.2-1.2-3.2-1.2-4.4,0L16.7,35.5c-2.4,2.4-6.3,2.4-8.7,0c-2.4-2.4-2.4-6.3,0-8.7 L27.3,7.5c-2.4-2.4-6.3-2.4-8.7,0L3.6,22.4c-4.8,4.8-4.8,12.6,0,17.5c4.8,4.8,12.6,4.8,17.5,0l19.6-19.6C41.9,19,41.9,17,40.7,15.8z "/>
</svg>
