<?xml version="1.0" ?>
<svg xmlns="http://www.w3.org/2000/svg" viewBox="0 109 300 28">
    <g><path fill="#000" d="M99.467,109.041l-12.295,27.17h3.123l3.198-7.13h14.684l3.16,7.13h3.28 l-12.296-27.17H99.467z M94.688,126.347l6.167-13.762l6.128,13.762H94.688z M54.764,122.723v-0.078 c0-7.438-5.511-13.872-13.72-13.872c-8.211,0-13.8,6.509-13.8,13.95v0.076c0,7.44,5.512,13.874,13.722,13.874 c3.353,0,6.244-1.079,8.518-2.889l3.545,3.235l2.081-2.275l-3.583-2.965C53.607,129.314,54.764,126.113,54.764,122.723z M49.252,129.774l-4.972-4.509l-2.042,2.273l5.01,4.277c-1.659,1.272-3.818,2.043-6.205,2.043c-6.167,0-10.638-5.008-10.638-11.137 v-0.078c0-6.126,4.393-11.061,10.56-11.061c6.167,0,10.638,5.01,10.638,11.139v0.076C51.604,125.458,50.716,127.885,49.252,129.774 z M13.45,121.259c-5.935-1.273-7.325-2.701-7.325-5.24v-0.08c0-2.428,2.236-4.355,5.744-4.355c2.776,0,5.279,0.886,7.786,2.926 l1.772-2.347c-2.736-2.197-5.55-3.315-9.483-3.315c-5.125,0-8.862,3.123-8.862,7.359v0.078c0,4.433,2.851,6.438,9.057,7.785 c5.666,1.195,7.014,2.623,7.014,5.125v0.078c0,2.66-2.391,4.586-6.012,4.586c-3.74,0-6.436-1.271-9.251-3.814l-1.889,2.234 c3.238,2.893,6.745,4.316,11.024,4.316c5.356,0,9.211-3.003,9.211-7.629v-0.08C22.237,124.766,19.461,122.569,13.45,121.259z M80.197,124.917c0,5.899-3.159,8.905-8.132,8.905c-5.164,0-8.247-3.278-8.247-9.097v-15.495h-3.045v15.687 c0,7.634,4.548,11.719,11.217,11.719c6.744,0,11.253-4.085,11.253-11.95v-15.455h-3.047V124.917z M281.683,133.438v-9.445h14.723 v-2.774h-14.723v-9.21h16.455v-2.777h-19.501v26.979h19.696v-2.773H281.683z M231.31,109.041l-12.292,27.17h3.118l3.198-7.13 h14.688l3.158,7.13h3.275l-12.292-27.17H231.31z M226.53,126.347l6.167-13.762l6.128,13.762H226.53z M141.283,117.325v-0.076 c0-2.121-0.773-4.007-2.081-5.319c-1.698-1.697-4.355-2.699-7.671-2.699H119.93v26.979h3.047v-10.482h7.709l7.821,10.482h3.736 l-8.283-11.022C138.199,124.416,141.283,121.795,141.283,117.325z M122.977,122.993v-10.945h8.322c4.354,0,6.899,1.999,6.899,5.318 v0.076c0,3.469-2.889,5.551-6.937,5.551H122.977z M262.605,133.859c-5.936,0-10.446-4.894-10.446-11.137v-0.078 c0-6.204,4.471-11.061,10.446-11.061c3.657,0,6.201,1.542,8.479,3.698l2.079-2.231c-2.696-2.543-5.624-4.278-10.521-4.278 c-7.939,0-13.646,6.316-13.646,13.95v0.076c0,7.746,5.746,13.874,13.531,13.874c4.898,0,7.979-1.888,10.789-4.74l-2-1.968 C268.735,132.435,266.304,133.859,262.605,133.859z M208.38,109.231h-10.097v26.979h3.041v-9.517h6.552 c5.742,0,10.599-3.006,10.599-8.828v-0.078C218.475,112.47,214.468,109.231,208.38,109.231z M215.393,117.982 c0,3.544-2.931,5.934-7.399,5.934h-6.669v-11.868h6.825c4.354,0,7.243,1.999,7.243,5.858V117.982z M150.838,123.992h14.721v-2.774 h-14.721v-9.21h16.46v-2.777h-19.5v26.979h19.693v-2.773h-16.652V123.992z M183.291,121.259c-5.938-1.273-7.324-2.701-7.324-5.24 v-0.08c0-2.428,2.235-4.355,5.743-4.355c2.772,0,5.279,0.886,7.785,2.926l1.774-2.347c-2.739-2.197-5.552-3.315-9.483-3.315 c-5.125,0-8.864,3.123-8.864,7.359v0.078c0,4.433,2.853,6.438,9.057,7.785c5.666,1.195,7.015,2.623,7.015,5.125v0.078 c0,2.66-2.388,4.586-6.008,4.586c-3.742,0-6.441-1.271-9.255-3.814l-1.886,2.234c3.237,2.893,6.743,4.316,11.021,4.316 c5.357,0,9.214-3.003,9.214-7.629v-0.08C192.079,124.766,189.302,122.569,183.291,121.259z"></path></g>
</svg>

